<?xml version="1.0" encoding="UTF-8"?><svg id="a" xmlns="http://www.w3.org/2000/svg" xmlns:xlink="http://www.w3.org/1999/xlink" viewBox="0 0 429 134"><defs><style>.h{fill:url(#d);}.h,.i,.j{opacity:.5;}.k{fill:url(#c);}.j{fill:url(#e);}.l{fill:url(#f);}.m{fill:url(#g);}.n{fill:url(#b);}</style><linearGradient id="b" x1="310.38" y1="27.49" x2="389.39" y2="27.25" gradientTransform="matrix(1, 0, 0, 1, 0, 0)" gradientUnits="userSpaceOnUse"><stop offset="0" stop-color="#00dee1"/><stop offset=".3" stop-color="#3c53fd"/><stop offset=".7" stop-color="#9927f6"/><stop offset=".99" stop-color="#f89775"/></linearGradient><linearGradient id="c" x1="283.35" y1="91.93" x2="416.1" y2="91.52" xlink:href="#b"/><linearGradient id="d" x1="338.83" y1="35.41" x2="362.96" y2="35.41" gradientTransform="matrix(1, 0, 0, 1, 0, 0)" gradientUnits="userSpaceOnUse"><stop offset="0" stop-color="#000"/><stop offset=".99" stop-color="#000"/></linearGradient><linearGradient id="e" x1="297.78" y1="91.74" x2="402.82" y2="91.74" xlink:href="#d"/><linearGradient id="f" x1="192.08" y1="57.14" x2="268.13" y2="23.54" gradientTransform="matrix(1, 0, 0, 1, 0, 0)" gradientUnits="userSpaceOnUse"><stop offset="0" stop-color="#454ffc"/><stop offset="1" stop-color="#8a2ef7"/></linearGradient><linearGradient id="g" x1="195.19" y1="70.96" x2="271.23" y2="37.36" xlink:href="#f"/></defs><g><g><path class="n" d="M388.83,45.99c-8.62-.02-17.25-.06-25.87-.1-5.29-.03-10.57-.05-15.85-.08-2.39-.05-4.78-.03-7.17-.05-.37,0-.74,0-1.11,0-5.43-.01-10.87-.05-16.31-.08-3.82,0-7.63-.03-11.45-.05h-.01c-.47,0-.78-.49-.56-.9,2.22-4.13,4.73-8.09,7.03-12.18,2.18-3.7,4.27-7.46,6.53-11.11,2.3-4.2,4.8-8.29,7.19-12.44,.11-.19,.31-.31,.53-.3,3.75,.04,7.51-.04,11.26,.1l.05-.05c3.82,.02,7.64-.02,11.46,.08,3.83-.05,7.66,0,11.49,.03,.75,0,1.51,0,2.25,0,.22,0,.42,.12,.53,.31,6.84,11.97,13.7,23.93,20.54,35.9,.23,.41-.06,.92-.53,.92Z"/><path class="k" d="M416.02,92.3c-4.39,7.55-8.79,15.09-13.2,22.63-1.73,2.97-3.46,5.93-5.19,8.9-.05,.09-.12,.16-.21,.21-.09,.06-.21,.09-.32,.09-5.14-.03-10.28-.04-15.41-.06-3.15,0-6.31-.02-9.46-.03-3.86-.02-7.71-.03-11.57-.04-.22,0-.42-.12-.53-.31-3.31-5.8-6.67-11.55-9.92-17.38-.23-.41-.82-.42-1.06-.01-.8,1.37-1.59,2.74-2.43,4.08-2.49,4.44-5.12,8.81-7.66,13.22-.11,.19-.31,.31-.53,.3-.79,0-1.58-.01-2.37,0-2.61-.02-5.21-.02-7.81-.04-3.19-.02-6.38-.02-9.57-.05-2.66-.02-5.32-.02-7.98-.03-2.9,.01-5.81-.09-8.7,.02-.58-.11-.71-.8-1.03-1.2-1.09-1.92-2.18-3.83-3.28-5.75-4.79-8.38-9.62-16.74-14.35-25.15-.11-.19-.1-.43,0-.61,6.18-10.45,12.21-20.98,18.35-31.45,.11-.19,.31-.3,.53-.3,1.43,.01,2.86,.01,4.29,.02,4.09,.01,8.18,.04,12.27,.05,3.63,.03,7.26,.05,10.88,.06,.39,0,.77,0,1.16,0,2.58,0,5.16,.09,7.74-.02,.1,0,.2,0,.28,.05,.55,.29,.73,.98,1.06,1.46,3.06,5.39,6.17,10.76,9.23,16.16,.23,.4,.8,.42,1.04,.04,.25-.38,.45-.79,.68-1.18,3.14-5.37,6.26-10.74,9.4-16.11,.11-.19,.31-.31,.53-.3,2.36,0,4.72,.02,7.08,.02,.97,0,1.94,.01,2.92,.02,3.19,.02,6.38,.03,9.57,.03,2.3,.01,4.6,.02,6.9,.03,3.43,0,6.85,.06,10.28,.02l.1,.29-.11-.33c6.24,10.62,12.25,21.37,18.4,32.05,.11,.19,.11,.43,0,.61Z"/></g><g class="i"><path class="h" d="M347.11,45.81c5.29,.03,10.57,.06,15.85,.08l-12.11-20.97-12.03,20.83c.37,0,.74,0,1.11,0,2.39,.02,4.78,0,7.17,.05Z"/><path class="j" d="M370.88,59.59c-.97,0-1.94,0-2.92-.02-2.36,0-4.72-.02-7.08-.02-.22,0-.42,.12-.53,.3-3.13,5.37-6.26,10.74-9.4,16.11-.23,.38-.43,.8-.68,1.18-.25,.38-.82,.36-1.04-.04-3.06-5.4-6.17-10.76-9.23-16.16-.34-.49-.52-1.17-1.06-1.46-.08-.05-.18-.06-.28-.05-2.58,.11-5.16,.02-7.74,.02l-33.14,57.4c1.1,1.92,2.19,3.83,3.28,5.75,.32,.4,.45,1.09,1.03,1.2,2.9-.1,5.8,0,8.7-.02,2.66,0,5.32,.02,7.98,.03,3.19,.03,6.38,.03,9.57,.05,2.6,.02,5.2,.02,7.81,.04,.79,0,1.58,0,2.37,0,.22,0,.43-.11,.53-.3,2.55-4.41,5.17-8.78,7.66-13.22,.84-1.34,1.64-2.72,2.43-4.08,.24-.41,.83-.4,1.06,.01,3.25,5.82,6.61,11.58,9.92,17.38,.11,.19,.31,.31,.53,.31,3.85,.01,7.71,.03,11.57,.04h25.2c.08-.05,.16-.12,.21-.21,1.73-2.97,3.46-5.93,5.19-8.9l-31.95-55.33Z"/></g></g><g><path d="M55.23,55.61H30.35l-4.08,8.97h-9.72L37.89,16.99h9.79l21.35,47.59h-9.79l-4.01-8.97Zm-12.44-28.62l-8.84,20.26h17.68l-8.84-20.26Z"/><path d="M79.99,17.05v47.53h-8.23V17.05h8.23Z"/><path d="M109.57,64.58v-17.95c0-4.42-2.31-8.43-6.87-8.43s-7.14,4.01-7.14,8.43v17.95h-8.29V30.99h7.68l.61,4.08c1.77-3.4,5.64-4.62,8.84-4.62,4.01,0,8.02,1.63,9.93,6.26,2.99-4.76,6.87-6.12,11.22-6.12,9.52,0,14.21,5.85,14.21,15.91v18.09h-8.3v-18.09c0-4.42-1.83-8.16-6.32-8.16s-7.28,3.88-7.28,8.29v17.95h-8.29Z"/><path d="M174.78,31.06h7.96v33.52h-7.82l-.41-4.9c-1.9,3.94-7.14,5.85-10.88,5.92-9.93,.07-17.27-6.05-17.27-17.81s7.68-17.61,17.47-17.54c4.49,0,8.77,2.11,10.68,5.44l.27-4.62Zm-20.13,16.73c0,6.39,4.42,10.2,9.93,10.2,13.05,0,13.05-20.33,0-20.33-5.51,0-9.93,3.74-9.93,10.13Z"/><path class="l" d="M203.56,50.78c.54,4.15,4.15,7.14,10,7.14,3.06,0,7.07-1.16,8.97-3.13l5.3,5.24c-3.54,3.67-9.32,5.44-14.42,5.44-11.56,0-18.43-7.14-18.43-17.88s6.94-17.54,17.81-17.54,18.22,6.93,16.93,20.74h-26.18Zm18.22-6.87c-.54-4.35-3.94-6.53-8.7-6.53-4.49,0-8.16,2.18-9.38,6.53h18.09Z"/><path class="m" d="M253.8,31.06h9.93v.27l-11.01,16.25,11.69,16.79v.2h-9.93l-7.28-11.22-7.28,11.22h-9.93v-.2l11.7-16.79-11.02-16.25v-.27h9.93l6.6,11.35,6.6-11.35Z"/></g><g><path d="M35.42,105.19c0,1.3-.2,2.51-.61,3.65s-1,2.14-1.76,2.99c-.77,.85-1.7,1.53-2.79,2.04s-2.32,.76-3.69,.76h-2.12c-2.69,0-4.78-.83-6.26-2.48s-2.23-3.92-2.23-6.8v-6.3h2.3v6.23c0,1.03,.13,1.97,.38,2.81s.65,1.57,1.19,2.18c.54,.61,1.22,1.09,2.03,1.42,.82,.34,1.8,.5,2.95,.5h1.58c1.13,0,2.11-.19,2.95-.56,.84-.37,1.54-.87,2.11-1.49,.56-.62,.98-1.36,1.26-2.2,.28-.84,.41-1.72,.41-2.63v-21.71h2.3v21.6Z"/><path d="M45.18,105.91c-.62,0-1.22-.09-1.8-.27-.58-.18-1.09-.49-1.53-.92-.44-.43-.8-1-1.06-1.71-.26-.71-.4-1.59-.4-2.65v-16.78h2.34v16.34c0,1.01,.22,1.84,.67,2.5,.44,.66,1.17,.99,2.18,.99h.61c.53,0,.79,.41,.79,1.22s-.26,1.26-.79,1.26h-1.01Z"/><path d="M52.12,103.42c.31,0,.52,.1,.63,.31,.11,.21,.16,.51,.16,.92,0,.43-.05,.75-.16,.95-.11,.2-.32,.31-.63,.31h-5.94c-.31,0-.52-.1-.63-.29-.11-.19-.16-.49-.16-.9,0-.43,.05-.76,.16-.97s.32-.32,.63-.32h5.94Z"/><path d="M54.86,103.42c1.01,0,1.78-.25,2.3-.76,.53-.5,.79-1.2,.79-2.09v-4.97h2.34v4.97c0,.53,.09,.97,.27,1.33,.18,.36,.41,.65,.7,.88,.29,.23,.61,.39,.97,.49,.36,.1,.73,.14,1.12,.14h1.08c.55,0,.83,.41,.83,1.22s-.28,1.26-.83,1.26h-1.15c-.86,0-1.67-.16-2.41-.49-.74-.32-1.36-.94-1.84-1.85-.55,.91-1.18,1.53-1.89,1.85-.71,.32-1.47,.49-2.29,.49h-2.74c-.31,0-.52-.1-.63-.29-.11-.19-.16-.49-.16-.9,0-.43,.05-.76,.16-.97,.11-.21,.32-.32,.63-.32h2.74Zm3.02-12.42h-2.88v-2.56h2.88v2.56Zm4.57,0h-2.88v-2.56h2.88v2.56Z"/><path d="M67.17,103.42c1.01,0,1.78-.25,2.3-.76,.53-.5,.79-1.2,.79-2.09v-4.97h2.34v4.97c0,.53,.09,.97,.27,1.33,.18,.36,.41,.65,.7,.88,.29,.23,.61,.39,.97,.49s.73,.14,1.12,.14h1.08c.55,0,.83,.41,.83,1.22s-.28,1.26-.83,1.26h-1.15c-.86,0-1.67-.16-2.41-.49-.74-.32-1.36-.94-1.84-1.85-.55,.91-1.18,1.53-1.89,1.85-.71,.32-1.47,.49-2.29,.49h-2.74c-.31,0-.52-.1-.63-.29-.11-.19-.16-.49-.16-.9,0-.43,.05-.76,.16-.97,.11-.21,.32-.32,.63-.32h2.74Zm2.3,9.22h-2.77v-2.56h2.77v2.56Zm4.68,0h-2.74v-2.56h2.74v2.56Z"/><path d="M82.69,103.42c.31,0,.52,.1,.63,.31,.11,.21,.16,.51,.16,.92,0,.43-.05,.75-.16,.95s-.32,.31-.63,.31h-5.94c-.31,0-.52-.1-.63-.29-.11-.19-.16-.49-.16-.9,0-.43,.05-.76,.16-.97,.11-.21,.32-.32,.63-.32h5.94Z"/><path d="M98.28,100.76c.41,1.01,.87,1.7,1.39,2.09,.52,.38,1.22,.58,2.11,.58h2.38c.31,0,.52,.1,.63,.31,.11,.21,.16,.51,.16,.92,0,.43-.05,.75-.16,.95-.11,.2-.32,.31-.63,.31h-2.56c-.79,0-1.46-.11-2-.32-.54-.21-1-.51-1.37-.88s-.68-.81-.94-1.31-.49-1.06-.7-1.66l-3.49,2.05c-.62,.36-1.22,.68-1.8,.95-.58,.28-1.2,.5-1.87,.67-.67,.17-1.41,.29-2.21,.38-.8,.08-1.72,.12-2.75,.12h-1.76c-.31,0-.52-.1-.63-.29-.11-.19-.16-.49-.16-.9,0-.43,.05-.76,.16-.97,.11-.21,.32-.32,.63-.32h1.8c.94,0,1.76-.03,2.48-.09,.72-.06,1.38-.16,1.98-.29,.6-.13,1.16-.31,1.69-.52,.53-.22,1.07-.49,1.62-.83l6.08-3.53c-.19-.5-.4-.96-.61-1.38-.21-.42-.49-.77-.81-1.06-.32-.29-.73-.51-1.21-.67s-1.08-.23-1.8-.23h-8.06l.21-2.48h8.17c.62,0,1.27,.07,1.93,.22,.66,.14,1.28,.45,1.87,.92s1.14,1.16,1.66,2.07c.52,.91,.94,2.12,1.28,3.64l-2.7,1.58Zm-5.29,11.95h-3.02v-2.63h3.02v2.63Z"/><path d="M107.38,103.42c.94,0,1.69-.25,2.25-.76,.56-.5,.85-1.2,.85-2.09v-4.97h2.34v4.97c0,1.71-.47,3.02-1.42,3.94-.95,.92-2.24,1.39-3.87,1.39h-3.38c-.31,0-.52-.1-.63-.29-.11-.19-.16-.49-.16-.9,0-.43,.05-.76,.16-.97s.32-.32,.63-.32h3.24Zm-.22,9.22h-2.77v-2.56h2.77v2.56Zm4.68,0h-2.74v-2.56h2.74v2.56Z"/><path d="M130.06,97.34c.62,.7,1.07,1.39,1.35,2.07,.28,.68,.41,1.35,.41,2,0,1.3-.46,2.37-1.39,3.22-.92,.85-2.24,1.28-3.94,1.28h-10.04l-.18-2.48h9.94c.94,0,1.66-.22,2.18-.65,.52-.43,.77-1,.77-1.69,0-.33-.08-.71-.25-1.12-.17-.41-.42-.79-.76-1.15l-6.7-7.56,1.84-1.73,6.77,7.81Z"/><path d="M144.52,109.13c-.44,1.14-1.05,2.12-1.82,2.93s-1.67,1.45-2.72,1.89c-1.04,.44-2.18,.67-3.4,.67h-2.12l-.18-2.45h1.76c1.2,0,2.23-.19,3.1-.58,.86-.38,1.57-.89,2.12-1.53,.55-.64,.96-1.36,1.22-2.18,.26-.82,.4-1.67,.4-2.56v-9.72h2.3v9.72c0,1.39-.22,2.66-.67,3.8Zm.81-18.13h-3.02v-2.63h3.02v2.63Z"/><path d="M145.36,112.17h.68c1.18,0,2.18-.19,3.02-.58s1.53-.89,2.07-1.53,.94-1.36,1.21-2.18c.26-.82,.4-1.67,.4-2.56v-9.72h2.34v9.72c0,1.39-.22,2.66-.67,3.8-.45,1.14-1.05,2.12-1.82,2.93-.77,.82-1.67,1.45-2.72,1.89-1.04,.44-2.18,.67-3.4,.67h-.94l-.18-2.45Z"/><path d="M159.58,83.59h2.34v22.32h-2.34v-22.32Z"/><path d="M183.56,112.17c1.22,0,2.25-.12,3.08-.36,.83-.24,1.51-.56,2.03-.95,.53-.4,.91-.84,1.13-1.33,.23-.49,.34-1,.34-1.53,0-.58-.15-1.07-.45-1.48-.3-.41-.81-.61-1.53-.61h-6.01l.18-2.48h12.78c.53,0,.79,.41,.79,1.22s-.27,1.26-.79,1.26h-3.53c.31,.26,.52,.59,.63,.97,.11,.38,.16,.82,.16,1.3,0,.65-.14,1.34-.41,2.09-.28,.74-.74,1.44-1.4,2.09s-1.54,1.19-2.63,1.62-2.44,.65-4.05,.65h-3.6c-2.69,0-4.78-.83-6.26-2.48s-2.23-3.92-2.23-6.8v-6.3h2.3v6.23c0,1.03,.13,1.97,.38,2.81s.65,1.57,1.19,2.18c.54,.61,1.22,1.09,2.03,1.42s1.8,.5,2.95,.5h2.92Z"/><path d="M201.2,103.42c.62,0,1.16,0,1.6-.02,.44-.01,.92,0,1.42,.02-1.37-.46-2.44-.91-3.22-1.37-.78-.46-1.38-.92-1.78-1.4-.41-.48-.67-1-.77-1.57s-.16-1.19-.16-1.89,.13-1.36,.4-2.05c.26-.7,.65-1.33,1.17-1.89,.52-.56,1.15-1.03,1.91-1.39,.76-.36,1.62-.54,2.61-.54,.91,0,1.74,.13,2.48,.38,.74,.25,1.39,.65,1.93,1.21,.54,.55,.96,1.27,1.26,2.16,.3,.89,.45,1.98,.45,3.28v1.62c0,1.85-.56,3.3-1.67,4.36-1.12,1.06-2.87,1.58-5.27,1.58h-8.42c-.31,0-.52-.1-.63-.29-.11-.19-.16-.49-.16-.9,0-.43,.05-.76,.16-.97,.11-.21,.32-.32,.63-.32h6.08Zm3.02-9.61c-.58,0-1.1,.11-1.57,.32s-.86,.49-1.19,.83-.57,.72-.74,1.15c-.17,.43-.25,.88-.25,1.33s.05,.88,.14,1.28,.36,.79,.79,1.19c.43,.4,1.09,.82,1.96,1.26s2.09,.94,3.65,1.49c.77-.65,1.15-1.61,1.15-2.88v-1.19c0-1.49-.3-2.66-.9-3.51-.6-.85-1.62-1.28-3.06-1.28Zm1.66-6.05h-3.02v-2.63h3.02v2.63Z"/><path d="M214.98,83.59h2.34v22.32h-2.34v-22.32Z"/><path d="M225.82,105.33c0,1.39-.22,2.66-.65,3.8-.43,1.14-1.03,2.12-1.8,2.93s-1.67,1.45-2.7,1.89c-1.03,.44-2.16,.67-3.38,.67h-2.12l-.18-2.45h1.76c1.2,0,2.23-.19,3.1-.58,.86-.38,1.57-.89,2.12-1.53,.55-.64,.96-1.36,1.22-2.18,.26-.82,.4-1.67,.4-2.56v-9.72h2.3v5.08c0,.84,.28,1.51,.85,2,.56,.49,1.3,.74,2.21,.74h.4c.53,0,.79,.41,.79,1.22s-.26,1.26-.79,1.26h-.4c-.58,0-1.15-.11-1.71-.32-.56-.21-1.04-.59-1.42-1.12v.86Z"/><path d="M235.29,103.42c.31,0,.52,.1,.63,.31,.11,.21,.16,.51,.16,.92,0,.43-.05,.75-.16,.95-.11,.2-.32,.31-.63,.31h-5.94c-.31,0-.52-.1-.63-.29-.11-.19-.16-.49-.16-.9,0-.43,.05-.76,.16-.97s.32-.32,.63-.32h5.94Z"/><path d="M244.36,103.32c1.08-1.97,2.1-3.65,3.06-5.04,.96-1.39,1.88-2.53,2.77-3.4,.89-.88,1.75-1.51,2.59-1.91,.84-.4,1.69-.59,2.56-.59,.94,0,1.78,.18,2.54,.54,.76,.36,1.41,.85,1.96,1.48,.55,.62,.98,1.36,1.28,2.2,.3,.84,.45,1.74,.45,2.7,0,.82-.13,1.62-.38,2.41-.25,.79-.64,1.5-1.17,2.12-.53,.62-1.2,1.13-2.02,1.51-.82,.38-1.78,.58-2.88,.58h-10.01c-.94,0-1.79-.16-2.56-.49-.77-.32-1.39-.94-1.87-1.85-.53,.91-1.18,1.53-1.96,1.85-.78,.32-1.59,.49-2.43,.49h-1.01c-.31,0-.52-.1-.63-.29-.11-.19-.16-.49-.16-.9,0-.43,.05-.76,.16-.97,.11-.21,.32-.32,.63-.32h1.15c1.01,0,1.79-.25,2.36-.76,.56-.5,.85-1.2,.85-2.09v-4.97h2.34v4.97c0,.77,.22,1.39,.67,1.85,.44,.47,1.01,.76,1.71,.88Zm14.87-4.03c0-.62-.1-1.21-.31-1.75-.2-.54-.49-1.01-.85-1.4s-.79-.71-1.28-.94c-.49-.23-1.03-.34-1.6-.34-1.27,0-2.6,.68-3.98,2.03-1.38,1.36-2.91,3.53-4.59,6.53h8.57c.5,0,1-.08,1.49-.23s.92-.41,1.3-.76c.37-.35,.67-.78,.9-1.3,.23-.52,.34-1.13,.34-1.85Z"/></g></svg>